0
SECTION
2
HEADER
9
$INSUNITS
70
4
9
$ACADVER
1
AC1014
9
$HANDSEED
5
FFFF
0
ENDSEC
0
SECTION
2
TABLES
0
TABLE
2
VPORT
5
8
100
AcDbSymbolTable
0
ENDTAB
0
TABLE
2
LTYPE
5
5
100
AcDbSymbolTable
0
LTYPE
5
14
100
AcDbSymbolTableRecord
100
AcDbLinetypeTableRecord
2
BYBLOCK
70
0
0
LTYPE
5
15
100
AcDbSymbolTableRecord
100
AcDbLinetypeTableRecord
2
BYLAYER
70
0
0
LTYPE
5
16
100
AcDbSymbolTableRecord
100
AcDbLinetypeTableRecord
2
DASHED
70
0
3
Dashed __ __ __ __ __ __ __ __ __ __ __ __ __ _
72
65
73
2
40
0.75
49
0.5
74
0
49
-0.25
74
0
0
ENDTAB
0
TABLE
2
LAYER
5
2
100
AcDbSymbolTable
70
2
0
LAYER
5
50
100
AcDbSymbolTableRecord
100
AcDbLayerTableRecord
2
0
70
0
62
7
6
CONTINUOUS
0
ENDTAB
0
TABLE
2
STYLE
5
3
100
AcDbSymbolTable
70
1
0
STYLE
5
11
100
AcDbSymbolTableRecord
100
AcDbTextStyleTableRecord
2
STANDARD
70
0
0
ENDTAB
0
TABLE
2
VIEW
5
6
100
AcDbSymbolTable
70
0
0
ENDTAB
0
TABLE
2
UCS
5
7
100
AcDbSymbolTable
70
0
0
ENDTAB
0
TABLE
2
APPID
5
9
100
AcDbSymbolTable
70
2
0
APPID
5
12
100
AcDbSymbolTableRecord
100
AcDbRegAppTableRecord
2
ACAD
70
0
0
ENDTAB
0
TABLE
2
DIMSTYLE
5
A
100
AcDbSymbolTable
70
1
0
ENDTAB
0
TABLE
2
BLOCK_RECORD
5
1
100
AcDbSymbolTable
70
1
0
BLOCK_RECORD
5
1F
100
AcDbSymbolTableRecord
100
AcDbBlockTableRecord
2
*MODEL_SPACE
0
BLOCK_RECORD
5
1B
100
AcDbSymbolTableRecord
100
AcDbBlockTableRecord
2
*PAPER_SPACE
0
ENDTAB
0
ENDSEC
0
SECTION
2
BLOCKS
0
BLOCK
5
20
100
AcDbEntity
100
AcDbBlockBegin
2
*MODEL_SPACE
0
ENDBLK
5
21
100
AcDbEntity
100
AcDbBlockEnd
0
BLOCK
5
1C
100
AcDbEntity
100
AcDbBlockBegin
2
*PAPER_SPACE
0
ENDBLK
5
1D
100
AcDbEntity
100
AcDbBlockEnd
0
ENDSEC
0
SECTION
2
ENTITIES
0
LWPOLYLINE
5
100
100
AcDbEntity
8
0
100
AcDbPolyline
90
60
70
1
43
0.0
10
146.43750000000119
20
-45.749999999999893
42
0.41421356237309703
10
147.75000000000117
20
-44.437499999999886
10
147.7500000000006
20
44.437499999999858
42
0.41421356237310103
10
146.43750000000057
20
45.749999999999844
10
137.25000000000017
20
45.749999999999851
42
-1.8391741483760482
10
146.83208953803378
20
60.543432203389848
42
0.29556980464056443
10
153.40266522125685
20
56.287500000000136
10
162.74999999999983
20
56.287500000000144
42
0.4142135623730942
10
168.74999999999986
20
62.287500000000136
10
168.74999999999986
20
168.75000000000014
10
62.287499999999874
20
168.75000000000014
42
0.4142135623730942
10
56.287499999999881
20
162.75000000000011
10
56.287499999999859
20
153.40266522125694
42
0.29556980464056692
10
60.543432203389699
20
146.83208953803384
42
-1.8391741483760695
10
45.749999999999858
20
137.25000000000011
10
45.749999999999872
20
146.43749999999994
42
0.41421356237309703
10
44.437499999999858
20
147.74999999999994
10
-44.437499999999872
20
147.75
42
0.41421356237310103
10
-45.749999999999879
20
146.4375
10
-45.749999999999858
20
137.25000000000011
42
-1.8391741483760482
10
-60.543432203389848
20
146.83208953803376
42
0.29556980464056365
10
-56.287500000000122
20
153.40266522125685
10
-56.287500000000144
20
162.75000000000011
42
0.4142135623730942
10
-62.287500000000136
20
168.75000000000014
10
-168.75000000000011
20
168.75000000000014
10
-168.74999999999997
20
62.287500000000122
42
0.41421356237309337
10
-162.74999999999994
20
56.287500000000144
10
-153.40266522125683
20
56.287500000000144
42
0.29556980464056054
10
-146.83208953803376
20
60.543432203389827
42
-1.839174148376052
10
-137.25000000000011
20
45.749999999999872
10
-146.43749999999977
20
45.749999999999879
42
0.41421356237309703
10
-147.74999999999974
20
44.437499999999872
10
-147.74999999999972
20
-44.437499999999872
42
0.41421356237309898
10
-146.43749999999972
20
-45.749999999999851
10
-137.25000000000011
20
-45.749999999999879
42
-1.8391741483760657
10
-146.83208953803384
20
-60.543432203389678
42
0.29556980464056931
10
-153.40266522125697
20
-56.287499999999866
10
-162.74999999999977
20
-56.287499999999859
42
0.41421356237309465
10
-168.74999999999977
20
-62.287499999999874
10
-168.74999999999966
20
-168.74999999999989
10
-62.287500000000122
20
-168.74999999999989
42
0.41421356237309337
10
-56.287500000000144
20
-162.74999999999991
10
-56.287500000000144
20
-153.40266522125683
42
0.29556980464056465
10
-60.543432203389862
20
-146.83208953803376
42
-1.8391741483760511
10
-45.749999999999879
20
-137.25000000000011
10
-45.749999999999879
20
-146.43749999999986
42
0.41421356237310297
10
-44.437499999999886
20
-147.74999999999983
10
44.437499999999858
20
-147.74999999999986
42
0.41421356237309898
10
45.749999999999829
20
-146.43749999999986
10
45.749999999999829
20
-137.25000000000017
42
-1.8391741483760706
10
60.543432203389678
20
-146.83208953803384
42
0.29556980464056765
10
56.287499999999838
20
-153.40266522125694
10
56.287499999999859
20
-162.74999999999989
42
0.4142135623730942
10
62.287499999999852
20
-168.74999999999989
10
168.74999999999986
20
-168.74999999999986
10
168.74999999999986
20
-62.287499999999838
42
0.41421356237309337
10
162.74999999999983
20
-56.287499999999859
10
153.40266522125694
20
-56.287499999999859
42
0.29556980464057081
10
146.83208953803381
20
-60.543432203389685
42
-1.8391741483760695
10
137.25000000000011
20
-45.749999999999879
0
ENDSEC
0
SECTION
2
OBJECTS
0
DICTIONARY
5
C
100
AcDbDictionary
3
ACAD_GROUP
350
D
3
ACAD_MLINESTYLE
350
17
0
DICTIONARY
5
D
100
AcDbDictionary
0
DICTIONARY
5
1A
330
C
100
AcDbDictionary
0
DICTIONARY
5
17
100
AcDbDictionary
0
ENDSEC
0
EOF
