0
SECTION
2
HEADER
9
$INSUNITS
70
4
9
$ACADVER
1
AC1014
9
$HANDSEED
5
FFFF
0
ENDSEC
0
SECTION
2
TABLES
0
TABLE
2
VPORT
5
8
100
AcDbSymbolTable
0
ENDTAB
0
TABLE
2
LTYPE
5
5
100
AcDbSymbolTable
0
LTYPE
5
14
100
AcDbSymbolTableRecord
100
AcDbLinetypeTableRecord
2
BYBLOCK
70
0
0
LTYPE
5
15
100
AcDbSymbolTableRecord
100
AcDbLinetypeTableRecord
2
BYLAYER
70
0
0
LTYPE
5
16
100
AcDbSymbolTableRecord
100
AcDbLinetypeTableRecord
2
DASHED
70
0
3
Dashed __ __ __ __ __ __ __ __ __ __ __ __ __ _
72
65
73
2
40
0.75
49
0.5
74
0
49
-0.25
74
0
0
ENDTAB
0
TABLE
2
LAYER
5
2
100
AcDbSymbolTable
70
2
0
LAYER
5
50
100
AcDbSymbolTableRecord
100
AcDbLayerTableRecord
2
0
70
0
62
7
6
CONTINUOUS
0
ENDTAB
0
TABLE
2
STYLE
5
3
100
AcDbSymbolTable
70
1
0
STYLE
5
11
100
AcDbSymbolTableRecord
100
AcDbTextStyleTableRecord
2
STANDARD
70
0
0
ENDTAB
0
TABLE
2
VIEW
5
6
100
AcDbSymbolTable
70
0
0
ENDTAB
0
TABLE
2
UCS
5
7
100
AcDbSymbolTable
70
0
0
ENDTAB
0
TABLE
2
APPID
5
9
100
AcDbSymbolTable
70
2
0
APPID
5
12
100
AcDbSymbolTableRecord
100
AcDbRegAppTableRecord
2
ACAD
70
0
0
ENDTAB
0
TABLE
2
DIMSTYLE
5
A
100
AcDbSymbolTable
70
1
0
ENDTAB
0
TABLE
2
BLOCK_RECORD
5
1
100
AcDbSymbolTable
70
1
0
BLOCK_RECORD
5
1F
100
AcDbSymbolTableRecord
100
AcDbBlockTableRecord
2
*MODEL_SPACE
0
BLOCK_RECORD
5
1B
100
AcDbSymbolTableRecord
100
AcDbBlockTableRecord
2
*PAPER_SPACE
0
ENDTAB
0
ENDSEC
0
SECTION
2
BLOCKS
0
BLOCK
5
20
100
AcDbEntity
100
AcDbBlockBegin
2
*MODEL_SPACE
0
ENDBLK
5
21
100
AcDbEntity
100
AcDbBlockEnd
0
BLOCK
5
1C
100
AcDbEntity
100
AcDbBlockBegin
2
*PAPER_SPACE
0
ENDBLK
5
1D
100
AcDbEntity
100
AcDbBlockEnd
0
ENDSEC
0
SECTION
2
ENTITIES
0
LWPOLYLINE
5
100
100
AcDbEntity
8
0
100
AcDbPolyline
90
68
70
1
43
0.0
10
147.75000000000017
20
-103.31249999999844
42
0.4142135623731466
10
146.43749999999997
20
-101.99999999999847
10
137.24999999999989
20
-102
42
-1.8391741483760686
10
146.83208953803356
20
-87.206567796610145
42
0.2955698046405702
10
153.40266522125668
20
-91.462499999999963
10
162.75000000000017
20
-91.462499999999977
42
0.4142135623730942
10
168.75000000000017
20
-85.462499999999991
10
168.75000000000014
20
0
10
68.062499999999844
20
0
42
0.41421356237309892
10
66.749999999999844
20
-1.3125000000000022
10
66.749999999999858
20
-10.499999999999991
42
-1.8391741483760891
10
51.956567796610202
20
-0.9179104619662104
42
0.2955698046405732
10
56.212500000000141
20
5.6526652212569592
10
56.212500000000141
20
15
42
0.41421356237309465
10
50.212500000000162
20
21.000000000000007
10
-50.212499999999864
20
21
42
0.41421356237309465
10
-56.212499999999849
20
15
10
-56.212499999999856
20
5.652665221256834
42
0.29556980464056964
10
-51.956567796610031
20
-0.91791046196628368
42
-1.8391741483760695
10
-66.749999999999858
20
-10.499999999999998
10
-66.749999999999844
20
-1.312500000000002
42
0.41421356237309626
10
-68.062499999999844
20
0
10
-147.74999999999986
20
0
10
-147.74999999999986
20
-79.6875
42
0.4142135623730871
10
-146.43749999999986
20
-81
10
-137.24999999999989
20
-80.999999999999972
42
-1.8391741483760686
10
-146.83208953803356
20
-95.793432203389827
42
0.2955698046405702
10
-153.40266522125668
20
-91.537500000000009
10
-162.74999999999983
20
-91.537499999999994
42
0.41421356237309337
10
-168.74999999999986
20
-97.537499999999966
10
-168.74999999999986
20
-197.96249999999992
42
0.41421356237308815
10
-162.74999999999983
20
-203.96249999999995
10
-153.40266522125671
20
-203.96250000000003
42
0.29556980464056359
10
-146.83208953803359
20
-199.70656779661016
42
-1.8391741483760715
10
-137.24999999999986
20
-214.5
10
-146.43749999999986
20
-214.49999999999991
42
0.41421356237309503
10
-147.74999999999986
20
-215.81249999999994
10
-147.74999999999986
20
-304.68749999999994
42
0.41421356237310297
10
-146.43749999999989
20
-305.99999999999994
10
-137.24999999999986
20
-306
42
-1.8391741483760666
10
-146.83208953803356
20
-320.79343220338984
42
0.29556980464057259
10
-153.40266522125665
20
-316.53750000000008
10
-162.74999999999983
20
-316.53749999999997
42
0.41421356237308815
10
-168.74999999999986
20
-322.53749999999997
10
-168.74999999999986
20
-429
10
-68.062499999999844
20
-429
42
0.41421356237308909
10
-66.749999999999858
20
-427.6875
10
-66.75
20
-86.999999999999886
42
-0.41421356237309592
10
-60.75
20
-80.999999999999872
10
60.750000000000021
20
-80.999999999999957
42
-0.41421356237309465
10
66.75
20
-86.999999999999957
10
66.750000000000142
20
-427.6875
42
0.41421356237308909
10
68.062500000000128
20
-429
10
147.75000000000017
20
-429
10
147.75000000000017
20
-328.3125000000008
42
0.4142135623730594
10
146.43750000000031
20
-327.0000000000008
10
137.24999999999986
20
-327
42
-1.8391741483760715
10
146.83208953803359
20
-312.20656779661016
42
0.29556980464056481
10
153.40266522125671
20
-316.46249999999998
10
162.75000000000017
20
-316.46250000000003
42
0.41421356237309503
10
168.75000000000014
20
-310.46249999999992
10
168.75000000000017
20
-210.03750000000002
42
0.41421356237308815
10
162.75000000000017
20
-204.03750000000002
10
153.40266522125671
20
-204.03749999999997
42
0.29556980464056359
10
146.83208953803359
20
-208.29343220338981
42
-1.8391741483760715
10
137.24999999999986
20
-193.49999999999997
10
146.43750000000023
20
-193.49999999999963
42
0.4142135623730831
10
147.75000000000017
20
-192.18749999999957
0
ENDSEC
0
SECTION
2
OBJECTS
0
DICTIONARY
5
C
100
AcDbDictionary
3
ACAD_GROUP
350
D
3
ACAD_MLINESTYLE
350
17
0
DICTIONARY
5
D
100
AcDbDictionary
0
DICTIONARY
5
1A
330
C
100
AcDbDictionary
0
DICTIONARY
5
17
100
AcDbDictionary
0
ENDSEC
0
EOF
